<mxfile host="app.diagrams.net" agent="Mozilla/5.0 (Windows NT 10.0; Win64; x64) AppleWebKit/537.36 (KHTML, like Gecko) Chrome/129.0.0.0 Safari/537.36" version="24.7.17" pages="2">
  <diagram id="C5RBs43oDa-KdzZeNtuy" name="Page-1">
    <mxGraphModel dx="2415" dy="986" grid="1" gridSize="10" guides="1" tooltips="1" connect="1" arrows="1" fold="1" page="1" pageScale="1" pageWidth="827" pageHeight="1169" math="0" shadow="0">
      <root>
        <mxCell id="WIyWlLk6GJQsqaUBKTNV-0" />
        <mxCell id="WIyWlLk6GJQsqaUBKTNV-1" parent="WIyWlLk6GJQsqaUBKTNV-0" />
        <mxCell id="7jpW8Ou9eAozHrmAsWN3-1" value="" style="edgeStyle=orthogonalEdgeStyle;rounded=0;orthogonalLoop=1;jettySize=auto;html=1;" edge="1" parent="WIyWlLk6GJQsqaUBKTNV-1" source="WIyWlLk6GJQsqaUBKTNV-3" target="7jpW8Ou9eAozHrmAsWN3-0">
          <mxGeometry relative="1" as="geometry" />
        </mxCell>
        <mxCell id="WIyWlLk6GJQsqaUBKTNV-3" value="Main" style="rounded=1;whiteSpace=wrap;html=1;fontSize=12;glass=0;strokeWidth=1;shadow=0;" parent="WIyWlLk6GJQsqaUBKTNV-1" vertex="1">
          <mxGeometry x="360" width="120" height="40" as="geometry" />
        </mxCell>
        <mxCell id="7jpW8Ou9eAozHrmAsWN3-7" value="" style="edgeStyle=orthogonalEdgeStyle;rounded=0;orthogonalLoop=1;jettySize=auto;html=1;" edge="1" parent="WIyWlLk6GJQsqaUBKTNV-1" source="7jpW8Ou9eAozHrmAsWN3-0" target="7jpW8Ou9eAozHrmAsWN3-6">
          <mxGeometry relative="1" as="geometry" />
        </mxCell>
        <mxCell id="7jpW8Ou9eAozHrmAsWN3-0" value="Input&amp;nbsp;&lt;div&gt;&quot;Menu&lt;/div&gt;&lt;div&gt;1. Login&lt;/div&gt;&lt;div&gt;2. Buat akun&quot;&lt;/div&gt;" style="shape=parallelogram;perimeter=parallelogramPerimeter;whiteSpace=wrap;html=1;fixedSize=1;rounded=1;glass=0;strokeWidth=1;shadow=0;" vertex="1" parent="WIyWlLk6GJQsqaUBKTNV-1">
          <mxGeometry x="360" y="80" width="120" height="80" as="geometry" />
        </mxCell>
        <mxCell id="7jpW8Ou9eAozHrmAsWN3-13" value="" style="edgeStyle=orthogonalEdgeStyle;rounded=0;orthogonalLoop=1;jettySize=auto;html=1;" edge="1" parent="WIyWlLk6GJQsqaUBKTNV-1" source="7jpW8Ou9eAozHrmAsWN3-5" target="7jpW8Ou9eAozHrmAsWN3-12">
          <mxGeometry relative="1" as="geometry" />
        </mxCell>
        <mxCell id="7jpW8Ou9eAozHrmAsWN3-33" value="" style="edgeStyle=orthogonalEdgeStyle;rounded=0;orthogonalLoop=1;jettySize=auto;html=1;" edge="1" parent="WIyWlLk6GJQsqaUBKTNV-1" source="7jpW8Ou9eAozHrmAsWN3-5" target="7jpW8Ou9eAozHrmAsWN3-32">
          <mxGeometry relative="1" as="geometry" />
        </mxCell>
        <mxCell id="7jpW8Ou9eAozHrmAsWN3-5" value="if menu == &quot;2&quot;" style="strokeWidth=2;html=1;shape=mxgraph.flowchart.decision;whiteSpace=wrap;" vertex="1" parent="WIyWlLk6GJQsqaUBKTNV-1">
          <mxGeometry x="200" y="200" width="120" height="80" as="geometry" />
        </mxCell>
        <mxCell id="7jpW8Ou9eAozHrmAsWN3-8" value="" style="edgeStyle=orthogonalEdgeStyle;rounded=0;orthogonalLoop=1;jettySize=auto;html=1;" edge="1" parent="WIyWlLk6GJQsqaUBKTNV-1" source="7jpW8Ou9eAozHrmAsWN3-6" target="7jpW8Ou9eAozHrmAsWN3-5">
          <mxGeometry relative="1" as="geometry" />
        </mxCell>
        <mxCell id="7jpW8Ou9eAozHrmAsWN3-11" value="" style="edgeStyle=orthogonalEdgeStyle;rounded=0;orthogonalLoop=1;jettySize=auto;html=1;" edge="1" parent="WIyWlLk6GJQsqaUBKTNV-1" source="7jpW8Ou9eAozHrmAsWN3-6" target="7jpW8Ou9eAozHrmAsWN3-9">
          <mxGeometry relative="1" as="geometry" />
        </mxCell>
        <mxCell id="7jpW8Ou9eAozHrmAsWN3-6" value="if menu == &quot;1&quot;" style="strokeWidth=2;html=1;shape=mxgraph.flowchart.decision;whiteSpace=wrap;" vertex="1" parent="WIyWlLk6GJQsqaUBKTNV-1">
          <mxGeometry x="360" y="200" width="120" height="80" as="geometry" />
        </mxCell>
        <mxCell id="7jpW8Ou9eAozHrmAsWN3-20" value="" style="edgeStyle=orthogonalEdgeStyle;rounded=0;orthogonalLoop=1;jettySize=auto;html=1;" edge="1" parent="WIyWlLk6GJQsqaUBKTNV-1" source="7jpW8Ou9eAozHrmAsWN3-9" target="7jpW8Ou9eAozHrmAsWN3-19">
          <mxGeometry relative="1" as="geometry" />
        </mxCell>
        <mxCell id="7jpW8Ou9eAozHrmAsWN3-9" value="input&lt;div&gt;username&lt;/div&gt;&lt;div&gt;&amp;amp;&lt;/div&gt;&lt;div&gt;password&lt;/div&gt;" style="shape=parallelogram;html=1;strokeWidth=2;perimeter=parallelogramPerimeter;whiteSpace=wrap;rounded=1;arcSize=12;size=0.23;" vertex="1" parent="WIyWlLk6GJQsqaUBKTNV-1">
          <mxGeometry x="360" y="320" width="120" height="80" as="geometry" />
        </mxCell>
        <mxCell id="7jpW8Ou9eAozHrmAsWN3-15" style="edgeStyle=orthogonalEdgeStyle;rounded=0;orthogonalLoop=1;jettySize=auto;html=1;exitX=0;exitY=0.5;exitDx=0;exitDy=0;" edge="1" parent="WIyWlLk6GJQsqaUBKTNV-1" source="7jpW8Ou9eAozHrmAsWN3-12" target="7jpW8Ou9eAozHrmAsWN3-0">
          <mxGeometry relative="1" as="geometry">
            <mxPoint x="40" y="120" as="targetPoint" />
            <Array as="points">
              <mxPoint x="40" y="360" />
              <mxPoint x="40" y="120" />
            </Array>
          </mxGeometry>
        </mxCell>
        <mxCell id="7jpW8Ou9eAozHrmAsWN3-12" value="input&lt;div&gt;usernamebaru&lt;/div&gt;&lt;div&gt;&amp;amp;&lt;/div&gt;&lt;div&gt;passwordbaru&lt;/div&gt;" style="shape=parallelogram;html=1;strokeWidth=2;perimeter=parallelogramPerimeter;whiteSpace=wrap;rounded=1;arcSize=12;size=0.23;" vertex="1" parent="WIyWlLk6GJQsqaUBKTNV-1">
          <mxGeometry x="200" y="320" width="120" height="80" as="geometry" />
        </mxCell>
        <mxCell id="7jpW8Ou9eAozHrmAsWN3-16" value="No" style="text;html=1;align=center;verticalAlign=middle;whiteSpace=wrap;rounded=0;" vertex="1" parent="WIyWlLk6GJQsqaUBKTNV-1">
          <mxGeometry x="310" y="210" width="60" height="30" as="geometry" />
        </mxCell>
        <mxCell id="7jpW8Ou9eAozHrmAsWN3-17" value="Yes" style="text;html=1;align=center;verticalAlign=middle;whiteSpace=wrap;rounded=0;" vertex="1" parent="WIyWlLk6GJQsqaUBKTNV-1">
          <mxGeometry x="420" y="280" width="60" height="30" as="geometry" />
        </mxCell>
        <mxCell id="7jpW8Ou9eAozHrmAsWN3-18" value="Yes" style="text;html=1;align=center;verticalAlign=middle;whiteSpace=wrap;rounded=0;" vertex="1" parent="WIyWlLk6GJQsqaUBKTNV-1">
          <mxGeometry x="260" y="280" width="60" height="30" as="geometry" />
        </mxCell>
        <mxCell id="7jpW8Ou9eAozHrmAsWN3-23" style="edgeStyle=orthogonalEdgeStyle;rounded=0;orthogonalLoop=1;jettySize=auto;html=1;exitX=1;exitY=0.5;exitDx=0;exitDy=0;exitPerimeter=0;entryX=1;entryY=0.5;entryDx=0;entryDy=0;" edge="1" parent="WIyWlLk6GJQsqaUBKTNV-1" source="7jpW8Ou9eAozHrmAsWN3-19" target="7jpW8Ou9eAozHrmAsWN3-9">
          <mxGeometry relative="1" as="geometry">
            <Array as="points">
              <mxPoint x="520" y="480" />
              <mxPoint x="520" y="360" />
            </Array>
          </mxGeometry>
        </mxCell>
        <mxCell id="7jpW8Ou9eAozHrmAsWN3-26" value="" style="edgeStyle=orthogonalEdgeStyle;rounded=0;orthogonalLoop=1;jettySize=auto;html=1;" edge="1" parent="WIyWlLk6GJQsqaUBKTNV-1" source="7jpW8Ou9eAozHrmAsWN3-19" target="7jpW8Ou9eAozHrmAsWN3-25">
          <mxGeometry relative="1" as="geometry" />
        </mxCell>
        <mxCell id="7jpW8Ou9eAozHrmAsWN3-19" value="if username &amp;amp; password&amp;nbsp;&lt;div&gt;== true&lt;/div&gt;" style="strokeWidth=2;html=1;shape=mxgraph.flowchart.decision;whiteSpace=wrap;" vertex="1" parent="WIyWlLk6GJQsqaUBKTNV-1">
          <mxGeometry x="360" y="440" width="120" height="80" as="geometry" />
        </mxCell>
        <mxCell id="7jpW8Ou9eAozHrmAsWN3-24" value="No" style="text;html=1;align=center;verticalAlign=middle;whiteSpace=wrap;rounded=0;" vertex="1" parent="WIyWlLk6GJQsqaUBKTNV-1">
          <mxGeometry x="470" y="450" width="60" height="30" as="geometry" />
        </mxCell>
        <mxCell id="7jpW8Ou9eAozHrmAsWN3-29" value="" style="edgeStyle=orthogonalEdgeStyle;rounded=0;orthogonalLoop=1;jettySize=auto;html=1;" edge="1" parent="WIyWlLk6GJQsqaUBKTNV-1" source="7jpW8Ou9eAozHrmAsWN3-25" target="7jpW8Ou9eAozHrmAsWN3-28">
          <mxGeometry relative="1" as="geometry" />
        </mxCell>
        <mxCell id="7jpW8Ou9eAozHrmAsWN3-35" value="" style="edgeStyle=orthogonalEdgeStyle;rounded=0;orthogonalLoop=1;jettySize=auto;html=1;" edge="1" parent="WIyWlLk6GJQsqaUBKTNV-1" source="7jpW8Ou9eAozHrmAsWN3-25" target="7jpW8Ou9eAozHrmAsWN3-31">
          <mxGeometry relative="1" as="geometry" />
        </mxCell>
        <mxCell id="7jpW8Ou9eAozHrmAsWN3-25" value="if akun == &quot;admin&quot;" style="strokeWidth=2;html=1;shape=mxgraph.flowchart.decision;whiteSpace=wrap;" vertex="1" parent="WIyWlLk6GJQsqaUBKTNV-1">
          <mxGeometry x="360" y="560" width="120" height="80" as="geometry" />
        </mxCell>
        <mxCell id="7jpW8Ou9eAozHrmAsWN3-27" value="Yes" style="text;html=1;align=center;verticalAlign=middle;whiteSpace=wrap;rounded=0;" vertex="1" parent="WIyWlLk6GJQsqaUBKTNV-1">
          <mxGeometry x="410" y="520" width="60" height="30" as="geometry" />
        </mxCell>
        <mxCell id="7jpW8Ou9eAozHrmAsWN3-41" value="" style="edgeStyle=orthogonalEdgeStyle;rounded=0;orthogonalLoop=1;jettySize=auto;html=1;" edge="1" parent="WIyWlLk6GJQsqaUBKTNV-1" source="7jpW8Ou9eAozHrmAsWN3-28" target="7jpW8Ou9eAozHrmAsWN3-40">
          <mxGeometry relative="1" as="geometry" />
        </mxCell>
        <mxCell id="7jpW8Ou9eAozHrmAsWN3-28" value="input&lt;div&gt;&quot;Menu Admin&lt;/div&gt;&lt;div&gt;1. Lihat Data&lt;/div&gt;&lt;div&gt;2. Tambah Data&lt;/div&gt;&lt;div&gt;3. Ubah Data&lt;/div&gt;&lt;div&gt;4. Hapus Data&lt;/div&gt;&lt;div&gt;5. Keluar&quot;&lt;/div&gt;" style="shape=parallelogram;html=1;strokeWidth=2;perimeter=parallelogramPerimeter;whiteSpace=wrap;rounded=1;arcSize=12;size=0.23;" vertex="1" parent="WIyWlLk6GJQsqaUBKTNV-1">
          <mxGeometry x="347.5" y="680" width="145" height="120" as="geometry" />
        </mxCell>
        <mxCell id="7jpW8Ou9eAozHrmAsWN3-30" value="Yes" style="text;html=1;align=center;verticalAlign=middle;whiteSpace=wrap;rounded=0;" vertex="1" parent="WIyWlLk6GJQsqaUBKTNV-1">
          <mxGeometry x="420" y="640" width="60" height="30" as="geometry" />
        </mxCell>
        <mxCell id="7jpW8Ou9eAozHrmAsWN3-38" value="" style="edgeStyle=orthogonalEdgeStyle;rounded=0;orthogonalLoop=1;jettySize=auto;html=1;" edge="1" parent="WIyWlLk6GJQsqaUBKTNV-1" source="7jpW8Ou9eAozHrmAsWN3-31" target="7jpW8Ou9eAozHrmAsWN3-37">
          <mxGeometry relative="1" as="geometry" />
        </mxCell>
        <mxCell id="7jpW8Ou9eAozHrmAsWN3-31" value="if akun == &quot;guest&quot;" style="strokeWidth=2;html=1;shape=mxgraph.flowchart.decision;whiteSpace=wrap;" vertex="1" parent="WIyWlLk6GJQsqaUBKTNV-1">
          <mxGeometry x="-390" y="560" width="120" height="80" as="geometry" />
        </mxCell>
        <mxCell id="7jpW8Ou9eAozHrmAsWN3-32" value="Output&lt;div&gt;&quot;Menu Tidak Tersedia&quot;&lt;/div&gt;" style="shape=parallelogram;html=1;strokeWidth=2;perimeter=parallelogramPerimeter;whiteSpace=wrap;rounded=1;arcSize=12;size=0.23;" vertex="1" parent="WIyWlLk6GJQsqaUBKTNV-1">
          <mxGeometry x="70" y="200" width="100" height="80" as="geometry" />
        </mxCell>
        <mxCell id="7jpW8Ou9eAozHrmAsWN3-34" value="No" style="text;html=1;align=center;verticalAlign=middle;whiteSpace=wrap;rounded=0;" vertex="1" parent="WIyWlLk6GJQsqaUBKTNV-1">
          <mxGeometry x="150" y="210" width="60" height="30" as="geometry" />
        </mxCell>
        <mxCell id="7jpW8Ou9eAozHrmAsWN3-36" value="No" style="text;html=1;align=center;verticalAlign=middle;whiteSpace=wrap;rounded=0;" vertex="1" parent="WIyWlLk6GJQsqaUBKTNV-1">
          <mxGeometry x="290" y="570" width="60" height="30" as="geometry" />
        </mxCell>
        <mxCell id="7jpW8Ou9eAozHrmAsWN3-100" value="" style="edgeStyle=orthogonalEdgeStyle;rounded=0;orthogonalLoop=1;jettySize=auto;html=1;" edge="1" parent="WIyWlLk6GJQsqaUBKTNV-1" source="7jpW8Ou9eAozHrmAsWN3-37" target="7jpW8Ou9eAozHrmAsWN3-99">
          <mxGeometry relative="1" as="geometry" />
        </mxCell>
        <mxCell id="7jpW8Ou9eAozHrmAsWN3-37" value="input&lt;div&gt;&quot;Menu&lt;/div&gt;&lt;div&gt;1. Lihat Data&lt;/div&gt;&lt;div&gt;2. Keluar&quot;&lt;/div&gt;" style="shape=parallelogram;html=1;strokeWidth=2;perimeter=parallelogramPerimeter;whiteSpace=wrap;rounded=1;arcSize=12;size=0.23;" vertex="1" parent="WIyWlLk6GJQsqaUBKTNV-1">
          <mxGeometry x="-390" y="680" width="120" height="70" as="geometry" />
        </mxCell>
        <mxCell id="7jpW8Ou9eAozHrmAsWN3-39" value="Yes" style="text;html=1;align=center;verticalAlign=middle;whiteSpace=wrap;rounded=0;" vertex="1" parent="WIyWlLk6GJQsqaUBKTNV-1">
          <mxGeometry x="-330" y="640" width="60" height="30" as="geometry" />
        </mxCell>
        <mxCell id="7jpW8Ou9eAozHrmAsWN3-47" value="" style="edgeStyle=orthogonalEdgeStyle;rounded=0;orthogonalLoop=1;jettySize=auto;html=1;" edge="1" parent="WIyWlLk6GJQsqaUBKTNV-1" source="7jpW8Ou9eAozHrmAsWN3-40" target="7jpW8Ou9eAozHrmAsWN3-45">
          <mxGeometry relative="1" as="geometry" />
        </mxCell>
        <mxCell id="7jpW8Ou9eAozHrmAsWN3-50" value="" style="edgeStyle=orthogonalEdgeStyle;rounded=0;orthogonalLoop=1;jettySize=auto;html=1;" edge="1" parent="WIyWlLk6GJQsqaUBKTNV-1" source="7jpW8Ou9eAozHrmAsWN3-40" target="7jpW8Ou9eAozHrmAsWN3-42">
          <mxGeometry relative="1" as="geometry" />
        </mxCell>
        <mxCell id="7jpW8Ou9eAozHrmAsWN3-40" value="if menuadmin == &quot;1&quot;" style="strokeWidth=2;html=1;shape=mxgraph.flowchart.decision;whiteSpace=wrap;" vertex="1" parent="WIyWlLk6GJQsqaUBKTNV-1">
          <mxGeometry x="640" y="840" width="120" height="80" as="geometry" />
        </mxCell>
        <mxCell id="7jpW8Ou9eAozHrmAsWN3-53" value="" style="edgeStyle=orthogonalEdgeStyle;rounded=0;orthogonalLoop=1;jettySize=auto;html=1;" edge="1" parent="WIyWlLk6GJQsqaUBKTNV-1" source="7jpW8Ou9eAozHrmAsWN3-42" target="7jpW8Ou9eAozHrmAsWN3-52">
          <mxGeometry relative="1" as="geometry" />
        </mxCell>
        <mxCell id="7jpW8Ou9eAozHrmAsWN3-57" value="" style="edgeStyle=orthogonalEdgeStyle;rounded=0;orthogonalLoop=1;jettySize=auto;html=1;" edge="1" parent="WIyWlLk6GJQsqaUBKTNV-1" source="7jpW8Ou9eAozHrmAsWN3-42" target="7jpW8Ou9eAozHrmAsWN3-43">
          <mxGeometry relative="1" as="geometry" />
        </mxCell>
        <mxCell id="7jpW8Ou9eAozHrmAsWN3-42" value="if menuadmin == &quot;2&quot;" style="strokeWidth=2;html=1;shape=mxgraph.flowchart.decision;whiteSpace=wrap;" vertex="1" parent="WIyWlLk6GJQsqaUBKTNV-1">
          <mxGeometry x="440" y="840" width="120" height="80" as="geometry" />
        </mxCell>
        <mxCell id="7jpW8Ou9eAozHrmAsWN3-59" value="" style="edgeStyle=orthogonalEdgeStyle;rounded=0;orthogonalLoop=1;jettySize=auto;html=1;" edge="1" parent="WIyWlLk6GJQsqaUBKTNV-1" source="7jpW8Ou9eAozHrmAsWN3-43" target="7jpW8Ou9eAozHrmAsWN3-58">
          <mxGeometry relative="1" as="geometry" />
        </mxCell>
        <mxCell id="7jpW8Ou9eAozHrmAsWN3-63" value="" style="edgeStyle=orthogonalEdgeStyle;rounded=0;orthogonalLoop=1;jettySize=auto;html=1;" edge="1" parent="WIyWlLk6GJQsqaUBKTNV-1" source="7jpW8Ou9eAozHrmAsWN3-43" target="7jpW8Ou9eAozHrmAsWN3-44">
          <mxGeometry relative="1" as="geometry" />
        </mxCell>
        <mxCell id="7jpW8Ou9eAozHrmAsWN3-43" value="if menuadmin == &quot;3&quot;" style="strokeWidth=2;html=1;shape=mxgraph.flowchart.decision;whiteSpace=wrap;" vertex="1" parent="WIyWlLk6GJQsqaUBKTNV-1">
          <mxGeometry x="277.5" y="840" width="120" height="80" as="geometry" />
        </mxCell>
        <mxCell id="7jpW8Ou9eAozHrmAsWN3-65" value="" style="edgeStyle=orthogonalEdgeStyle;rounded=0;orthogonalLoop=1;jettySize=auto;html=1;" edge="1" parent="WIyWlLk6GJQsqaUBKTNV-1" source="7jpW8Ou9eAozHrmAsWN3-44" target="7jpW8Ou9eAozHrmAsWN3-64">
          <mxGeometry relative="1" as="geometry" />
        </mxCell>
        <mxCell id="7jpW8Ou9eAozHrmAsWN3-94" value="" style="edgeStyle=orthogonalEdgeStyle;rounded=0;orthogonalLoop=1;jettySize=auto;html=1;" edge="1" parent="WIyWlLk6GJQsqaUBKTNV-1" source="7jpW8Ou9eAozHrmAsWN3-44" target="7jpW8Ou9eAozHrmAsWN3-93">
          <mxGeometry relative="1" as="geometry" />
        </mxCell>
        <mxCell id="7jpW8Ou9eAozHrmAsWN3-44" value="if menuadmin == &quot;4&quot;" style="strokeWidth=2;html=1;shape=mxgraph.flowchart.decision;whiteSpace=wrap;" vertex="1" parent="WIyWlLk6GJQsqaUBKTNV-1">
          <mxGeometry x="120" y="840" width="120" height="80" as="geometry" />
        </mxCell>
        <mxCell id="7jpW8Ou9eAozHrmAsWN3-48" value="" style="edgeStyle=orthogonalEdgeStyle;rounded=0;orthogonalLoop=1;jettySize=auto;html=1;" edge="1" parent="WIyWlLk6GJQsqaUBKTNV-1" source="7jpW8Ou9eAozHrmAsWN3-45" target="7jpW8Ou9eAozHrmAsWN3-46">
          <mxGeometry relative="1" as="geometry" />
        </mxCell>
        <mxCell id="7jpW8Ou9eAozHrmAsWN3-45" value="Output&lt;div&gt;&quot;List Data&amp;nbsp;&lt;/div&gt;&lt;div&gt;Pasien&quot;&lt;/div&gt;" style="shape=parallelogram;html=1;strokeWidth=2;perimeter=parallelogramPerimeter;whiteSpace=wrap;rounded=1;arcSize=12;size=0.23;" vertex="1" parent="WIyWlLk6GJQsqaUBKTNV-1">
          <mxGeometry x="640" y="960" width="120" height="80" as="geometry" />
        </mxCell>
        <mxCell id="7jpW8Ou9eAozHrmAsWN3-85" style="edgeStyle=orthogonalEdgeStyle;rounded=0;orthogonalLoop=1;jettySize=auto;html=1;exitX=1;exitY=0.5;exitDx=0;exitDy=0;entryX=1;entryY=0;entryDx=0;entryDy=0;" edge="1" parent="WIyWlLk6GJQsqaUBKTNV-1" source="7jpW8Ou9eAozHrmAsWN3-46" target="7jpW8Ou9eAozHrmAsWN3-28">
          <mxGeometry relative="1" as="geometry">
            <Array as="points">
              <mxPoint x="830" y="1110" />
              <mxPoint x="830" y="680" />
            </Array>
          </mxGeometry>
        </mxCell>
        <mxCell id="7jpW8Ou9eAozHrmAsWN3-114" style="edgeStyle=orthogonalEdgeStyle;rounded=0;orthogonalLoop=1;jettySize=auto;html=1;exitX=0.5;exitY=1;exitDx=0;exitDy=0;exitPerimeter=0;entryX=1;entryY=0.5;entryDx=0;entryDy=0;" edge="1" parent="WIyWlLk6GJQsqaUBKTNV-1" source="7jpW8Ou9eAozHrmAsWN3-46" target="7jpW8Ou9eAozHrmAsWN3-96">
          <mxGeometry relative="1" as="geometry" />
        </mxCell>
        <mxCell id="7jpW8Ou9eAozHrmAsWN3-46" value="input&lt;div&gt;&quot;Kembali Ke&amp;nbsp;&lt;/div&gt;&lt;div&gt;Menu&quot;&lt;/div&gt;" style="shape=mxgraph.flowchart.decision;html=1;strokeWidth=2;whiteSpace=wrap;rounded=1;arcSize=12;size=0.23;" vertex="1" parent="WIyWlLk6GJQsqaUBKTNV-1">
          <mxGeometry x="640" y="1080" width="120" height="60" as="geometry" />
        </mxCell>
        <mxCell id="7jpW8Ou9eAozHrmAsWN3-55" value="" style="edgeStyle=orthogonalEdgeStyle;rounded=0;orthogonalLoop=1;jettySize=auto;html=1;" edge="1" parent="WIyWlLk6GJQsqaUBKTNV-1" source="7jpW8Ou9eAozHrmAsWN3-52" target="7jpW8Ou9eAozHrmAsWN3-54">
          <mxGeometry relative="1" as="geometry" />
        </mxCell>
        <mxCell id="7jpW8Ou9eAozHrmAsWN3-52" value="input&lt;div&gt;&quot;Masukkan Nama Pasien,&amp;nbsp;&lt;/div&gt;&lt;div&gt;Penyakit, dan Ruangan&quot;&lt;/div&gt;" style="shape=parallelogram;html=1;strokeWidth=2;perimeter=parallelogramPerimeter;whiteSpace=wrap;rounded=1;arcSize=12;size=0.23;" vertex="1" parent="WIyWlLk6GJQsqaUBKTNV-1">
          <mxGeometry x="437.5" y="950" width="125" height="120" as="geometry" />
        </mxCell>
        <mxCell id="7jpW8Ou9eAozHrmAsWN3-87" style="edgeStyle=orthogonalEdgeStyle;rounded=0;orthogonalLoop=1;jettySize=auto;html=1;exitX=1;exitY=0.5;exitDx=0;exitDy=0;entryX=1;entryY=0;entryDx=0;entryDy=0;" edge="1" parent="WIyWlLk6GJQsqaUBKTNV-1" source="7jpW8Ou9eAozHrmAsWN3-54" target="7jpW8Ou9eAozHrmAsWN3-28">
          <mxGeometry relative="1" as="geometry">
            <Array as="points">
              <mxPoint x="830" y="1150" />
              <mxPoint x="830" y="680" />
            </Array>
          </mxGeometry>
        </mxCell>
        <mxCell id="7jpW8Ou9eAozHrmAsWN3-113" style="edgeStyle=orthogonalEdgeStyle;rounded=0;orthogonalLoop=1;jettySize=auto;html=1;exitX=0.5;exitY=1;exitDx=0;exitDy=0;exitPerimeter=0;entryX=1;entryY=0.5;entryDx=0;entryDy=0;" edge="1" parent="WIyWlLk6GJQsqaUBKTNV-1" source="7jpW8Ou9eAozHrmAsWN3-54" target="7jpW8Ou9eAozHrmAsWN3-96">
          <mxGeometry relative="1" as="geometry" />
        </mxCell>
        <mxCell id="7jpW8Ou9eAozHrmAsWN3-54" value="input&lt;div&gt;&quot;Kembali Ke&amp;nbsp;&lt;/div&gt;&lt;div&gt;Menu&quot;&lt;/div&gt;" style="shape=mxgraph.flowchart.decision;html=1;strokeWidth=2;whiteSpace=wrap;rounded=1;arcSize=12;size=0.23;" vertex="1" parent="WIyWlLk6GJQsqaUBKTNV-1">
          <mxGeometry x="440" y="1120" width="120" height="60" as="geometry" />
        </mxCell>
        <mxCell id="7jpW8Ou9eAozHrmAsWN3-69" value="" style="edgeStyle=orthogonalEdgeStyle;rounded=0;orthogonalLoop=1;jettySize=auto;html=1;" edge="1" parent="WIyWlLk6GJQsqaUBKTNV-1" source="7jpW8Ou9eAozHrmAsWN3-58" target="7jpW8Ou9eAozHrmAsWN3-68">
          <mxGeometry relative="1" as="geometry" />
        </mxCell>
        <mxCell id="7jpW8Ou9eAozHrmAsWN3-58" value="input indeks&lt;div&gt;keberapa yang&lt;/div&gt;&lt;div&gt;ingin diubah&lt;/div&gt;" style="shape=parallelogram;html=1;strokeWidth=2;perimeter=parallelogramPerimeter;whiteSpace=wrap;rounded=1;arcSize=12;size=0.23;" vertex="1" parent="WIyWlLk6GJQsqaUBKTNV-1">
          <mxGeometry x="275" y="950" width="125" height="90" as="geometry" />
        </mxCell>
        <mxCell id="7jpW8Ou9eAozHrmAsWN3-88" style="edgeStyle=orthogonalEdgeStyle;rounded=0;orthogonalLoop=1;jettySize=auto;html=1;exitX=1;exitY=0.5;exitDx=0;exitDy=0;entryX=1;entryY=0;entryDx=0;entryDy=0;" edge="1" parent="WIyWlLk6GJQsqaUBKTNV-1" source="7jpW8Ou9eAozHrmAsWN3-60" target="7jpW8Ou9eAozHrmAsWN3-28">
          <mxGeometry relative="1" as="geometry">
            <Array as="points">
              <mxPoint x="830" y="1270" />
              <mxPoint x="830" y="680" />
            </Array>
          </mxGeometry>
        </mxCell>
        <mxCell id="7jpW8Ou9eAozHrmAsWN3-112" style="edgeStyle=orthogonalEdgeStyle;rounded=0;orthogonalLoop=1;jettySize=auto;html=1;exitX=0.5;exitY=1;exitDx=0;exitDy=0;exitPerimeter=0;entryX=0;entryY=0.5;entryDx=0;entryDy=0;" edge="1" parent="WIyWlLk6GJQsqaUBKTNV-1" source="7jpW8Ou9eAozHrmAsWN3-60" target="7jpW8Ou9eAozHrmAsWN3-96">
          <mxGeometry relative="1" as="geometry" />
        </mxCell>
        <mxCell id="7jpW8Ou9eAozHrmAsWN3-60" value="input&lt;div&gt;&quot;Kembali Ke&amp;nbsp;&lt;/div&gt;&lt;div&gt;Menu&quot;&lt;/div&gt;" style="shape=mxgraph.flowchart.decision;html=1;strokeWidth=2;whiteSpace=wrap;rounded=1;arcSize=12;size=0.23;" vertex="1" parent="WIyWlLk6GJQsqaUBKTNV-1">
          <mxGeometry x="277.5" y="1240" width="120" height="60" as="geometry" />
        </mxCell>
        <mxCell id="7jpW8Ou9eAozHrmAsWN3-67" value="" style="edgeStyle=orthogonalEdgeStyle;rounded=0;orthogonalLoop=1;jettySize=auto;html=1;" edge="1" parent="WIyWlLk6GJQsqaUBKTNV-1" source="7jpW8Ou9eAozHrmAsWN3-64" target="7jpW8Ou9eAozHrmAsWN3-66">
          <mxGeometry relative="1" as="geometry" />
        </mxCell>
        <mxCell id="7jpW8Ou9eAozHrmAsWN3-64" value="input indeks&lt;div&gt;keberapa&lt;/div&gt;&lt;div&gt;yang ingin&amp;nbsp;&lt;/div&gt;&lt;div&gt;dihapus&lt;/div&gt;" style="shape=parallelogram;html=1;strokeWidth=2;perimeter=parallelogramPerimeter;whiteSpace=wrap;rounded=1;arcSize=12;size=0.23;" vertex="1" parent="WIyWlLk6GJQsqaUBKTNV-1">
          <mxGeometry x="120" y="950" width="120" height="120" as="geometry" />
        </mxCell>
        <mxCell id="7jpW8Ou9eAozHrmAsWN3-72" value="" style="edgeStyle=orthogonalEdgeStyle;rounded=0;orthogonalLoop=1;jettySize=auto;html=1;" edge="1" parent="WIyWlLk6GJQsqaUBKTNV-1" source="7jpW8Ou9eAozHrmAsWN3-66" target="7jpW8Ou9eAozHrmAsWN3-71">
          <mxGeometry relative="1" as="geometry" />
        </mxCell>
        <mxCell id="7jpW8Ou9eAozHrmAsWN3-66" value="Delete Indeks" style="rounded=1;whiteSpace=wrap;html=1;absoluteArcSize=1;arcSize=14;strokeWidth=2;" vertex="1" parent="WIyWlLk6GJQsqaUBKTNV-1">
          <mxGeometry x="130" y="1100" width="100" height="40" as="geometry" />
        </mxCell>
        <mxCell id="7jpW8Ou9eAozHrmAsWN3-70" value="" style="edgeStyle=orthogonalEdgeStyle;rounded=0;orthogonalLoop=1;jettySize=auto;html=1;" edge="1" parent="WIyWlLk6GJQsqaUBKTNV-1" source="7jpW8Ou9eAozHrmAsWN3-68" target="7jpW8Ou9eAozHrmAsWN3-60">
          <mxGeometry relative="1" as="geometry" />
        </mxCell>
        <mxCell id="7jpW8Ou9eAozHrmAsWN3-68" value="input&amp;nbsp;&lt;div&gt;&quot;Nama Pasien&amp;nbsp;&lt;/div&gt;&lt;div&gt;Baru, Penyakit&amp;nbsp;&lt;/div&gt;&lt;div&gt;Baru,&amp;nbsp;&lt;/div&gt;&lt;div&gt;dan&amp;nbsp;&lt;/div&gt;&lt;div&gt;Ruangan Baru&lt;/div&gt;" style="shape=parallelogram;html=1;strokeWidth=2;perimeter=parallelogramPerimeter;whiteSpace=wrap;rounded=1;arcSize=12;size=0.23;" vertex="1" parent="WIyWlLk6GJQsqaUBKTNV-1">
          <mxGeometry x="275" y="1080" width="125" height="120" as="geometry" />
        </mxCell>
        <mxCell id="7jpW8Ou9eAozHrmAsWN3-89" style="edgeStyle=orthogonalEdgeStyle;rounded=0;orthogonalLoop=1;jettySize=auto;html=1;exitX=1;exitY=0.5;exitDx=0;exitDy=0;entryX=1;entryY=0;entryDx=0;entryDy=0;" edge="1" parent="WIyWlLk6GJQsqaUBKTNV-1" source="7jpW8Ou9eAozHrmAsWN3-71" target="7jpW8Ou9eAozHrmAsWN3-28">
          <mxGeometry relative="1" as="geometry">
            <Array as="points">
              <mxPoint x="830" y="1220" />
              <mxPoint x="830" y="680" />
            </Array>
          </mxGeometry>
        </mxCell>
        <mxCell id="7jpW8Ou9eAozHrmAsWN3-111" style="edgeStyle=orthogonalEdgeStyle;rounded=0;orthogonalLoop=1;jettySize=auto;html=1;exitX=0.5;exitY=1;exitDx=0;exitDy=0;exitPerimeter=0;entryX=0;entryY=0.5;entryDx=0;entryDy=0;" edge="1" parent="WIyWlLk6GJQsqaUBKTNV-1" source="7jpW8Ou9eAozHrmAsWN3-71" target="7jpW8Ou9eAozHrmAsWN3-96">
          <mxGeometry relative="1" as="geometry" />
        </mxCell>
        <mxCell id="7jpW8Ou9eAozHrmAsWN3-71" value="input&lt;div&gt;&quot;Kembali Ke&amp;nbsp;&lt;/div&gt;&lt;div&gt;Menu&quot;&lt;/div&gt;" style="shape=mxgraph.flowchart.decision;html=1;strokeWidth=2;whiteSpace=wrap;rounded=1;arcSize=12;size=0.23;" vertex="1" parent="WIyWlLk6GJQsqaUBKTNV-1">
          <mxGeometry x="120" y="1190" width="120" height="60" as="geometry" />
        </mxCell>
        <mxCell id="7jpW8Ou9eAozHrmAsWN3-74" value="Yes" style="text;html=1;align=center;verticalAlign=middle;whiteSpace=wrap;rounded=0;" vertex="1" parent="WIyWlLk6GJQsqaUBKTNV-1">
          <mxGeometry x="700" y="920" width="60" height="30" as="geometry" />
        </mxCell>
        <mxCell id="7jpW8Ou9eAozHrmAsWN3-75" value="Yes" style="text;html=1;align=center;verticalAlign=middle;whiteSpace=wrap;rounded=0;" vertex="1" parent="WIyWlLk6GJQsqaUBKTNV-1">
          <mxGeometry x="500" y="920" width="60" height="30" as="geometry" />
        </mxCell>
        <mxCell id="7jpW8Ou9eAozHrmAsWN3-76" value="Yes" style="text;html=1;align=center;verticalAlign=middle;whiteSpace=wrap;rounded=0;" vertex="1" parent="WIyWlLk6GJQsqaUBKTNV-1">
          <mxGeometry x="337.5" y="920" width="60" height="30" as="geometry" />
        </mxCell>
        <mxCell id="7jpW8Ou9eAozHrmAsWN3-77" value="Yes" style="text;html=1;align=center;verticalAlign=middle;whiteSpace=wrap;rounded=0;" vertex="1" parent="WIyWlLk6GJQsqaUBKTNV-1">
          <mxGeometry x="180" y="920" width="60" height="30" as="geometry" />
        </mxCell>
        <mxCell id="7jpW8Ou9eAozHrmAsWN3-78" value="No" style="text;html=1;align=center;verticalAlign=middle;whiteSpace=wrap;rounded=0;" vertex="1" parent="WIyWlLk6GJQsqaUBKTNV-1">
          <mxGeometry x="600" y="850" width="60" height="30" as="geometry" />
        </mxCell>
        <mxCell id="7jpW8Ou9eAozHrmAsWN3-79" value="No" style="text;html=1;align=center;verticalAlign=middle;whiteSpace=wrap;rounded=0;" vertex="1" parent="WIyWlLk6GJQsqaUBKTNV-1">
          <mxGeometry x="397.5" y="850" width="60" height="30" as="geometry" />
        </mxCell>
        <mxCell id="7jpW8Ou9eAozHrmAsWN3-80" value="No" style="text;html=1;align=center;verticalAlign=middle;whiteSpace=wrap;rounded=0;" vertex="1" parent="WIyWlLk6GJQsqaUBKTNV-1">
          <mxGeometry x="230" y="850" width="60" height="30" as="geometry" />
        </mxCell>
        <mxCell id="7jpW8Ou9eAozHrmAsWN3-81" value="No" style="text;html=1;align=center;verticalAlign=middle;whiteSpace=wrap;rounded=0;" vertex="1" parent="WIyWlLk6GJQsqaUBKTNV-1">
          <mxGeometry x="70" y="850" width="60" height="30" as="geometry" />
        </mxCell>
        <mxCell id="7jpW8Ou9eAozHrmAsWN3-82" value="output&lt;div&gt;&quot;Menu Tidak&lt;/div&gt;&lt;div&gt;Tersedia&quot;&lt;/div&gt;" style="shape=parallelogram;html=1;strokeWidth=2;perimeter=parallelogramPerimeter;whiteSpace=wrap;rounded=1;arcSize=12;size=0.23;" vertex="1" parent="WIyWlLk6GJQsqaUBKTNV-1">
          <mxGeometry x="-180" y="840" width="100" height="80" as="geometry" />
        </mxCell>
        <mxCell id="7jpW8Ou9eAozHrmAsWN3-106" value="" style="edgeStyle=orthogonalEdgeStyle;rounded=0;orthogonalLoop=1;jettySize=auto;html=1;" edge="1" parent="WIyWlLk6GJQsqaUBKTNV-1" source="7jpW8Ou9eAozHrmAsWN3-91" target="7jpW8Ou9eAozHrmAsWN3-105">
          <mxGeometry relative="1" as="geometry" />
        </mxCell>
        <mxCell id="7jpW8Ou9eAozHrmAsWN3-91" value="Output&lt;div&gt;&quot;List Data&amp;nbsp;&lt;/div&gt;&lt;div&gt;Pasien&quot;&lt;/div&gt;" style="shape=parallelogram;html=1;strokeWidth=2;perimeter=parallelogramPerimeter;whiteSpace=wrap;rounded=1;arcSize=12;size=0.23;" vertex="1" parent="WIyWlLk6GJQsqaUBKTNV-1">
          <mxGeometry x="-390" y="910" width="120" height="80" as="geometry" />
        </mxCell>
        <mxCell id="7jpW8Ou9eAozHrmAsWN3-95" value="" style="edgeStyle=orthogonalEdgeStyle;rounded=0;orthogonalLoop=1;jettySize=auto;html=1;" edge="1" parent="WIyWlLk6GJQsqaUBKTNV-1" source="7jpW8Ou9eAozHrmAsWN3-93" target="7jpW8Ou9eAozHrmAsWN3-82">
          <mxGeometry relative="1" as="geometry" />
        </mxCell>
        <mxCell id="7jpW8Ou9eAozHrmAsWN3-110" value="" style="edgeStyle=orthogonalEdgeStyle;rounded=0;orthogonalLoop=1;jettySize=auto;html=1;" edge="1" parent="WIyWlLk6GJQsqaUBKTNV-1" source="7jpW8Ou9eAozHrmAsWN3-93" target="7jpW8Ou9eAozHrmAsWN3-97">
          <mxGeometry relative="1" as="geometry" />
        </mxCell>
        <mxCell id="7jpW8Ou9eAozHrmAsWN3-93" value="if menuadmin == &quot;5&quot;" style="strokeWidth=2;html=1;shape=mxgraph.flowchart.decision;whiteSpace=wrap;" vertex="1" parent="WIyWlLk6GJQsqaUBKTNV-1">
          <mxGeometry x="-40" y="840" width="120" height="80" as="geometry" />
        </mxCell>
        <mxCell id="7jpW8Ou9eAozHrmAsWN3-96" value="End" style="rounded=1;whiteSpace=wrap;html=1;fontSize=12;glass=0;strokeWidth=1;shadow=0;" vertex="1" parent="WIyWlLk6GJQsqaUBKTNV-1">
          <mxGeometry x="360" y="1360" width="120" height="40" as="geometry" />
        </mxCell>
        <mxCell id="7jpW8Ou9eAozHrmAsWN3-98" style="edgeStyle=orthogonalEdgeStyle;rounded=0;orthogonalLoop=1;jettySize=auto;html=1;exitX=0.5;exitY=1;exitDx=0;exitDy=0;entryX=0;entryY=0.5;entryDx=0;entryDy=0;" edge="1" parent="WIyWlLk6GJQsqaUBKTNV-1" source="7jpW8Ou9eAozHrmAsWN3-97" target="7jpW8Ou9eAozHrmAsWN3-96">
          <mxGeometry relative="1" as="geometry" />
        </mxCell>
        <mxCell id="7jpW8Ou9eAozHrmAsWN3-97" value="output&lt;div&gt;&amp;nbsp;&quot;Terimakasih&quot;&lt;/div&gt;" style="shape=parallelogram;html=1;strokeWidth=2;perimeter=parallelogramPerimeter;whiteSpace=wrap;rounded=1;arcSize=12;size=0.23;" vertex="1" parent="WIyWlLk6GJQsqaUBKTNV-1">
          <mxGeometry x="-40" y="950" width="120" height="120" as="geometry" />
        </mxCell>
        <mxCell id="7jpW8Ou9eAozHrmAsWN3-101" value="" style="edgeStyle=orthogonalEdgeStyle;rounded=0;orthogonalLoop=1;jettySize=auto;html=1;" edge="1" parent="WIyWlLk6GJQsqaUBKTNV-1" source="7jpW8Ou9eAozHrmAsWN3-99" target="7jpW8Ou9eAozHrmAsWN3-91">
          <mxGeometry relative="1" as="geometry" />
        </mxCell>
        <mxCell id="7jpW8Ou9eAozHrmAsWN3-103" value="" style="edgeStyle=orthogonalEdgeStyle;rounded=0;orthogonalLoop=1;jettySize=auto;html=1;" edge="1" parent="WIyWlLk6GJQsqaUBKTNV-1" source="7jpW8Ou9eAozHrmAsWN3-99" target="7jpW8Ou9eAozHrmAsWN3-102">
          <mxGeometry relative="1" as="geometry" />
        </mxCell>
        <mxCell id="7jpW8Ou9eAozHrmAsWN3-99" value="if menuguest == &quot;1&quot;" style="strokeWidth=2;html=1;shape=mxgraph.flowchart.decision;whiteSpace=wrap;" vertex="1" parent="WIyWlLk6GJQsqaUBKTNV-1">
          <mxGeometry x="-390" y="790" width="120" height="80" as="geometry" />
        </mxCell>
        <mxCell id="7jpW8Ou9eAozHrmAsWN3-104" style="edgeStyle=orthogonalEdgeStyle;rounded=0;orthogonalLoop=1;jettySize=auto;html=1;exitX=0.5;exitY=1;exitDx=0;exitDy=0;exitPerimeter=0;entryX=0;entryY=0.5;entryDx=0;entryDy=0;" edge="1" parent="WIyWlLk6GJQsqaUBKTNV-1" source="7jpW8Ou9eAozHrmAsWN3-102" target="7jpW8Ou9eAozHrmAsWN3-96">
          <mxGeometry relative="1" as="geometry" />
        </mxCell>
        <mxCell id="7jpW8Ou9eAozHrmAsWN3-102" value="if menuguest == &quot;2&quot;" style="strokeWidth=2;html=1;shape=mxgraph.flowchart.decision;whiteSpace=wrap;" vertex="1" parent="WIyWlLk6GJQsqaUBKTNV-1">
          <mxGeometry x="-560" y="790" width="120" height="80" as="geometry" />
        </mxCell>
        <mxCell id="7jpW8Ou9eAozHrmAsWN3-107" style="edgeStyle=orthogonalEdgeStyle;rounded=0;orthogonalLoop=1;jettySize=auto;html=1;exitX=1;exitY=0.5;exitDx=0;exitDy=0;entryX=1;entryY=0;entryDx=0;entryDy=0;" edge="1" parent="WIyWlLk6GJQsqaUBKTNV-1" source="7jpW8Ou9eAozHrmAsWN3-105" target="7jpW8Ou9eAozHrmAsWN3-37">
          <mxGeometry relative="1" as="geometry">
            <Array as="points">
              <mxPoint x="-220" y="1070" />
              <mxPoint x="-220" y="680" />
            </Array>
          </mxGeometry>
        </mxCell>
        <mxCell id="7jpW8Ou9eAozHrmAsWN3-115" style="edgeStyle=orthogonalEdgeStyle;rounded=0;orthogonalLoop=1;jettySize=auto;html=1;exitX=0.5;exitY=1;exitDx=0;exitDy=0;exitPerimeter=0;entryX=0;entryY=0.5;entryDx=0;entryDy=0;" edge="1" parent="WIyWlLk6GJQsqaUBKTNV-1" source="7jpW8Ou9eAozHrmAsWN3-105" target="7jpW8Ou9eAozHrmAsWN3-96">
          <mxGeometry relative="1" as="geometry" />
        </mxCell>
        <mxCell id="7jpW8Ou9eAozHrmAsWN3-105" value="input&lt;div&gt;&quot;Kembali Ke&amp;nbsp;&lt;/div&gt;&lt;div&gt;Menu&quot;&lt;/div&gt;" style="shape=mxgraph.flowchart.decision;html=1;strokeWidth=2;whiteSpace=wrap;rounded=1;arcSize=12;size=0.23;" vertex="1" parent="WIyWlLk6GJQsqaUBKTNV-1">
          <mxGeometry x="-390" y="1040" width="120" height="60" as="geometry" />
        </mxCell>
        <mxCell id="7jpW8Ou9eAozHrmAsWN3-108" value="Yes" style="text;html=1;align=center;verticalAlign=middle;whiteSpace=wrap;rounded=0;" vertex="1" parent="WIyWlLk6GJQsqaUBKTNV-1">
          <mxGeometry x="-330" y="865" width="60" height="30" as="geometry" />
        </mxCell>
        <mxCell id="7jpW8Ou9eAozHrmAsWN3-109" value="No" style="text;html=1;align=center;verticalAlign=middle;whiteSpace=wrap;rounded=0;" vertex="1" parent="WIyWlLk6GJQsqaUBKTNV-1">
          <mxGeometry x="-443" y="800" width="60" height="30" as="geometry" />
        </mxCell>
      </root>
    </mxGraphModel>
  </diagram>
  <diagram id="rZtKksTDZvMYg83m4_hZ" name="Page-2">
    <mxGraphModel grid="1" page="1" gridSize="10" guides="1" tooltips="1" connect="1" arrows="1" fold="1" pageScale="1" pageWidth="827" pageHeight="1169" math="0" shadow="0">
      <root>
        <mxCell id="0" />
        <mxCell id="1" parent="0" />
      </root>
    </mxGraphModel>
  </diagram>
</mxfile>
